<svg width="26" height="24" viewBox="0 0 26 24" fill="none" xmlns="http://www.w3.org/2000/svg">
<path d="M22.1264 6.01256L22.1294 6.00168L22.1292 5.99038L22.0545 1.26908L22.0544 1.26129L22.0527 1.25368C22.0149 1.08051 22.0982 0.913278 22.282 0.777723C22.4659 0.642093 22.74 0.548152 23.0458 0.530252C23.6496 0.494909 24.3538 0.756109 24.6969 1.53849C24.55 2.22129 24.4666 2.89457 24.3837 3.56396L24.3835 3.56562C24.2994 4.24458 24.2157 4.91957 24.0672 5.60331L24.06 5.63621L24.0791 5.66396C25.9973 8.45814 26.2079 11.5037 25.2627 14.257C24.3168 17.0123 22.2123 19.4765 19.4991 21.097C16.7864 22.7172 13.469 23.4917 10.0995 22.8734C6.7347 22.2559 3.31112 20.2482 0.381637 16.2928C0.273208 15.8389 0.22964 15.4602 0.253007 15.1585C0.276611 14.8537 0.367757 14.6347 0.521334 14.4922C0.674714 14.3499 0.90239 14.2727 1.22268 14.2766C1.54309 14.2805 1.94901 14.3658 2.44842 14.5405C10.6251 17.9359 19.6831 14.7656 22.1264 6.01256Z" fill="#FFEE2E" stroke="#468E0D" stroke-width="0.155869"/>
</svg>
