<svg width="28" height="17" viewBox="0 0 28 17" fill="none" xmlns="http://www.w3.org/2000/svg">
<path d="M24.1548 0.344387C22.258 2.00461 22.0298 5.20547 22.0298 5.20547C4.08866 1.52391 0.485618 15.0293 0.485618 15.0293C0.485618 15.0293 12.3294 22.5245 23.0109 7.7056C23.0109 7.7056 25.3578 9.90484 27.8827 9.84429C27.8827 9.84429 25.6864 8.16317 24.6856 5.61303C23.6853 3.06309 24.1548 0.344387 24.1548 0.344387ZM4.99728 13.1122C4.57674 13.2758 4.0887 13.0331 3.90707 12.5703C3.72545 12.1074 3.91904 11.5998 4.33958 11.4362C4.76013 11.2726 5.24805 11.515 5.42967 11.9778C5.6113 12.4407 5.41783 12.9486 4.99728 13.1122ZM9.04977 15.1835C9.02916 15.2864 8.96209 15.362 8.87704 15.3951C8.82246 15.4163 8.7596 15.4197 8.69632 15.4001C8.53645 15.3516 8.43461 15.175 8.46939 15.0065C9.09603 11.9747 6.8232 10.5788 6.72666 10.5208C6.57918 10.433 6.5179 10.2386 6.5898 10.0866C6.66103 9.93444 6.8379 9.88144 6.9857 9.96837C7.01372 9.98524 9.77774 11.662 9.04977 15.1835Z" fill="#7A7871"/>
</svg>
