<svg width="18" height="26" viewBox="0 0 18 26" fill="none" xmlns="http://www.w3.org/2000/svg">
<path fill-rule="evenodd" clip-rule="evenodd" d="M15.1832 24.6797C14.8242 23.3984 13.7537 21.8935 12.9198 20.2682C13.6345 21.6613 14.3493 23.0544 15.1832 24.6797ZM17.1971 24.5332C16.0074 22.7962 15.2911 20.8183 14.5747 18.8403C13.9807 18.2642 13.5074 18.5051 13.0341 18.7459C12.2066 19.4599 11.3776 19.589 12.3274 20.2769C13.517 22.0139 14.3509 23.6392 14.9482 25.385C15.1848 25.2645 15.6581 25.0237 15.8948 24.9032C16.3681 24.6624 16.4856 24.3097 17.1971 24.5332ZM12.0859 18.6429C11.7269 17.3615 10.6563 15.8566 9.82244 14.2313C10.5372 15.6244 11.252 17.0176 12.0859 18.6429ZM8.86941 12.3738C8.62955 11.3246 7.43987 9.58759 6.7251 8.19447C7.43987 9.58759 8.03552 10.7485 8.98854 12.606C8.98854 12.606 8.98854 12.606 8.86941 12.3738ZM10.8833 12.2273C9.81278 10.7225 9.09639 8.74455 8.26089 6.53443C7.78598 6.19049 7.31269 6.43136 6.8394 6.67223C6.01194 7.38615 5.18288 7.51527 6.13268 8.20315C7.20323 9.70802 8.15625 11.5655 8.75351 13.3113C8.99015 13.1908 9.46344 12.95 9.70009 12.8295C10.0543 12.3565 10.2909 12.236 10.8833 12.2273ZM5.77208 6.33697C5.53221 5.28779 4.34254 3.55073 3.62777 2.15761C4.34254 3.55073 4.93818 4.71167 5.89121 6.56916L5.77208 6.33697ZM7.78598 6.19049C6.71544 4.68562 5.99906 2.70769 5.16355 0.497577C4.68865 0.153637 4.21536 0.394506 3.74206 0.635375C2.91461 1.3493 1.96641 1.24623 3.03535 2.16629C4.10589 3.67117 5.05892 5.52866 5.65617 7.2744C5.89282 7.15397 6.36611 6.9131 6.48363 6.56048C6.95692 6.31961 7.19356 6.19917 7.78598 6.19049ZM7.33041 12.8642C6.38222 12.7612 5.67067 12.5377 4.72247 12.4346C5.67067 12.5377 6.26309 12.529 7.33041 12.8642C5.90731 12.4172 4.83999 12.082 3.53602 11.8672C4.60335 12.2024 5.55154 12.3055 6.97464 12.7525C5.43241 12.0733 4.12844 11.8585 2.94199 11.291C4.00931 11.6263 5.07664 11.9615 6.61886 12.6407C5.31328 11.8411 3.89019 11.3941 2.46709 10.9471C3.89019 11.3941 5.43241 12.0733 7.33041 12.8642C7.68618 12.976 7.68618 12.976 7.33041 12.8642ZM6.85712 13.1051C6.85712 13.1051 6.62047 13.2256 6.50134 12.9934C4.72408 13.0194 3.18347 12.925 1.76198 13.0628C3.06595 13.2776 4.48744 13.1398 5.90892 13.002C4.48744 13.1398 3.3026 13.1572 2.23689 13.4068C3.42173 13.3894 4.84321 13.2516 6.2647 13.1138C5.07986 13.1312 4.01415 13.3807 2.94843 13.6303C4.36992 13.4925 5.43563 13.2429 6.62047 13.2256C5.79141 13.3547 4.96234 13.4838 4.13328 13.6129C4.96234 13.4838 5.79141 13.3547 6.62047 13.2256C6.85712 13.1051 6.85712 13.1051 6.85712 13.1051ZM7.57189 14.4982C7.0986 14.7391 6.74443 15.2122 6.0345 15.5735C6.50779 15.3326 6.86195 14.8595 7.57189 14.4982C6.86195 14.8595 6.0345 15.5735 5.32456 15.9348C6.0345 15.5735 6.6253 14.98 7.33524 14.6187C6.38866 15.1004 5.44208 15.5821 4.61462 16.2961C5.20543 15.7026 6.15201 15.2208 7.0986 14.7391C6.15201 15.2208 5.20543 15.7026 4.25885 16.1843C5.20543 15.7026 6.26953 14.8682 7.45276 14.266C7.68941 14.1456 7.80853 14.3778 7.57189 14.4982ZM7.69102 14.7304C7.45437 14.8509 7.45437 14.8509 7.45437 14.8509C6.5094 15.9174 5.80107 16.8635 5.32939 17.6892C5.80107 16.8635 6.5094 15.9174 7.10021 15.3239C6.62853 16.1496 6.03772 16.7431 5.56604 17.5688C6.03772 16.7431 6.74604 15.797 7.21772 14.9713C6.74604 15.797 6.51101 16.5022 6.15685 16.9753C6.51101 16.5022 6.98269 15.6765 7.45437 14.8509C7.21934 15.5561 6.86517 16.0292 6.74765 16.3818C7.10182 15.9087 7.10021 15.3239 7.45437 14.8509L7.69102 14.7304ZM8.28183 14.1369C8.51847 14.0165 8.51847 14.0165 8.75512 13.8961C8.87425 14.1283 8.87425 14.1283 9.23002 14.24C10.4197 15.9771 11.2536 17.6024 11.8508 19.3481C12.0875 19.2277 12.5608 18.9868 12.7974 18.8664C13.1516 18.3933 13.3882 18.2729 13.9807 18.2642C12.9101 16.7593 12.1937 14.7814 11.3582 12.5713C10.8833 12.2273 10.41 12.4682 9.93674 12.7091C9.34593 13.3026 8.75351 13.3113 8.63599 13.6639C8.51686 13.4317 8.16109 13.3199 8.04196 13.0878C7.92283 12.8556 7.56706 12.7438 6.97303 12.1677C5.4308 11.4885 2.94038 10.7062 1.63641 10.4914C1.9938 11.188 3.8918 11.9789 5.43402 12.6581C3.89341 12.5637 1.8795 12.7102 0.696272 13.3124C1.88272 13.8798 6.26631 13.6986 7.56867 13.3286C7.56867 13.3286 7.80531 13.2082 7.92444 13.4404C8.28021 13.5521 8.63599 13.6639 8.75512 13.8961C8.51847 14.0165 8.28183 14.1369 7.92605 14.0252C7.92605 14.0252 7.68941 14.1456 7.21611 14.3865C5.91376 14.7565 4.37636 15.8317 3.54891 16.5456C4.26046 16.7691 5.68033 16.0465 6.74443 15.2122C6.03611 16.1583 5.21026 17.457 4.73858 18.2827C5.80429 18.0331 7.69263 15.3152 7.80853 14.3778C8.04518 14.2574 8.04518 14.2574 8.28183 14.1369Z" fill="#468E0D"/>
</svg>
