<svg width="23" height="21" viewBox="0 0 23 21" fill="none" xmlns="http://www.w3.org/2000/svg">
<path fill-rule="evenodd" clip-rule="evenodd" d="M6.02808 3.4787C5.95375 3.54435 5.87949 3.60994 5.80683 3.67719C5.63881 3.8293 5.47362 3.9838 5.31118 4.1402C3.91167 5.48792 2.66551 7.02943 1.77009 8.75402C0.873492 10.4809 0.340722 12.3894 0.39048 14.2652C0.412957 15.1113 0.557081 16.0097 1.05329 16.764C1.13876 16.894 1.23464 17.0182 1.34041 17.135L3.11511 19.1272L3.13237 19.1466C3.3364 19.3756 3.58007 19.5746 3.86253 19.7285C4.287 19.9597 4.79043 20.0805 5.324 20.0356C5.78642 19.9968 6.2213 19.8386 6.60724 19.6299C6.99139 19.4221 7.32513 19.1667 7.62623 18.9092C8.22775 18.3948 8.71563 17.875 9.23375 17.5383C10.1593 16.9369 11.3583 16.7639 12.5668 16.7353C13.7824 16.7065 15.0867 16.8024 16.4561 16.4803C18.1224 16.0884 19.6672 15.087 20.7641 13.7387C21.8596 12.392 22.4856 10.7372 22.562 9.11022C22.6422 7.40064 22.1161 5.74683 21.0854 4.48263C21.0262 4.40996 20.9649 4.3392 20.9024 4.26945L19.1105 2.25797C18.0872 1.10531 16.6479 0.336168 15.051 0.0994131C13.2889 -0.161815 11.4272 0.225847 9.75559 0.994488C8.38783 1.62341 7.1478 2.49523 6.02907 3.47891L6.02808 3.4787ZM6.80672 4.29811C6.88581 4.22825 6.9664 4.16014 7.04672 4.09196C8.01243 3.27586 9.05394 2.57058 10.1658 2.05934C11.644 1.3796 13.2672 1.05337 14.746 1.27259C16.1575 1.48184 17.4453 2.20127 18.3081 3.25954C19.171 4.31789 19.6197 5.72758 19.5524 7.16036C19.4885 8.5232 18.9554 9.9241 18.0498 11.0372C17.1455 12.1488 15.8508 12.9844 14.4952 13.3033C13.3712 13.5677 12.1556 13.4942 10.8654 13.5247C9.56808 13.5555 8.11616 13.7187 6.84366 14.5456C6.13025 15.0092 5.60554 15.5847 5.08852 16.0269C4.8303 16.2476 4.57302 16.4396 4.31338 16.5801C4.0555 16.7195 3.79034 16.8089 3.54844 16.8292C3.27147 16.8525 2.9788 16.7876 2.72871 16.6513C2.47658 16.514 2.25613 16.3017 2.08776 16.0457C1.74914 15.531 1.61643 14.8385 1.59698 14.1054C1.5535 12.4674 2.02288 10.7588 2.83327 9.19807C3.64478 7.63506 4.79272 6.20701 6.10647 4.94186C6.33514 4.72174 6.56852 4.50668 6.80672 4.29812L6.80672 4.29811ZM7.51865 5.1058C7.29677 5.29871 7.0795 5.50016 6.86517 5.7067C5.63321 6.89308 4.57893 8.21299 3.84737 9.62193C3.11923 11.0243 2.71027 12.5423 2.74771 13.9535C2.7643 14.5788 2.88623 15.075 3.07456 15.3613C3.16596 15.5003 3.27737 15.5982 3.36725 15.6472C3.45113 15.6929 3.54279 15.7045 3.57503 15.7018C3.60705 15.6991 3.71042 15.6753 3.84592 15.602C3.98665 15.5259 4.17106 15.3946 4.38847 15.2086C4.82502 14.8354 5.38468 14.2068 6.28424 13.6222C7.88754 12.5803 9.58068 12.4263 10.9628 12.3936C12.3241 12.3613 13.4552 12.4135 14.3451 12.2042C15.4046 11.955 16.4609 11.2772 17.1815 10.3914C17.9059 9.50092 18.3504 8.34215 18.4026 7.23117C18.4574 6.06232 18.0824 4.88538 17.3796 4.02328C16.677 3.16151 15.6029 2.56187 14.4553 2.39172C13.2467 2.21256 11.8509 2.48018 10.557 3.07518C9.57754 3.52553 8.63467 4.15916 7.741 4.91461C7.6664 4.97742 7.59239 5.04127 7.51864 5.10579L7.51865 5.1058ZM12.7931 6.62034C13.2185 6.24461 13.7264 5.99643 14.205 5.93037C14.6836 5.86431 15.0938 5.98578 15.3453 6.26808C15.5968 6.55039 15.669 6.97039 15.546 7.43569C15.4231 7.901 15.115 8.37349 14.6896 8.74923C14.479 8.93528 14.2459 9.09198 14.0036 9.21037C13.7614 9.32877 13.5147 9.40655 13.2777 9.43926C13.0407 9.47198 12.818 9.45899 12.6224 9.40104C12.4267 9.3431 12.2619 9.24131 12.1374 9.10153C12.0129 8.96174 11.931 8.78668 11.8966 8.58634C11.8622 8.38599 11.8758 8.16429 11.9367 7.93389C11.9976 7.70349 12.1045 7.4689 12.2515 7.24352C12.3985 7.01814 12.5825 6.80638 12.7931 6.62034Z" fill="#EE8383"/>
</svg>
